<?xml version="1.0" standalone="no"?>
<!DOCTYPE svg PUBLIC "-//W3C//DTD SVG 20010904//EN"
 "http://www.w3.org/TR/2001/REC-SVG-20010904/DTD/svg10.dtd">
<svg version="1.0" xmlns="http://www.w3.org/2000/svg"
 width="471.990728pt" height="471.229887pt" viewBox="0 0 471.990728 471.229887"
 preserveAspectRatio="xMidYMid meet">
<metadata>
Created by potrace 1.16, written by Peter Selinger 2001-2019
</metadata>
<g transform="translate(-14.010515,485.927518) scale(0.100000,-0.100000)"
fill="#353360" stroke="none">
<path d="M2314 4850 c-30 -12 -32 -17 -45 -106 -16 -107 -22 -115 -44 -57 -10
26 -29 69 -42 96 -19 39 -28 47 -51 47 -58 0 -58 -9 6 -146 71 -154 88 -201
96 -274 14 -110 14 -110 53 -110 l35 0 -6 113 c-6 100 -4 129 23 274 17 89 31
164 31 167 0 9 -31 6 -56 -4z"/>
<path d="M2608 4845 c-5 -5 -8 -27 -8 -49 0 -23 -9 -135 -20 -249 -10 -115
-16 -215 -13 -223 7 -20 59 -18 67 3 4 9 9 44 12 77 3 34 7 75 10 93 l5 32 69
-6 70 -6 0 50 c0 56 -7 63 -65 63 -57 0 -65 7 -65 62 l0 49 84 -7 84 -7 3 52
c3 36 0 52 -10 56 -24 10 -216 18 -223 10z"/>
<path d="M1865 4771 c-89 -25 -100 -30 -103 -52 -1 -13 4 -35 11 -49 11 -22
18 -25 58 -22 l45 3 49 -178 c62 -232 59 -223 94 -223 16 0 31 6 34 13 3 8
-15 90 -39 183 -25 93 -47 186 -51 207 -5 34 -4 37 19 37 13 0 33 6 43 14 17
12 18 18 7 55 -16 50 -24 51 -167 12z"/>
<path d="M3015 4789 c-106 -61 -170 -211 -163 -382 l3 -88 42 -40 c63 -58 119
-52 190 23 40 41 70 108 88 196 30 138 14 231 -45 274 -32 23 -89 32 -115 17z
m81 -130 c12 -24 14 -45 9 -93 -15 -126 -62 -216 -115 -216 -62 0 -78 90 -39
216 35 114 109 162 145 93z"/>
<path d="M1555 4661 c-49 -22 -91 -46 -93 -54 -4 -18 170 -422 197 -457 11
-15 26 -24 37 -22 39 7 194 85 194 98 0 24 -20 65 -35 70 -8 4 -44 -6 -80 -20
-36 -14 -69 -26 -73 -26 -11 0 -42 66 -42 90 0 14 18 29 60 50 33 17 60 35 60
40 0 23 -30 80 -42 80 -7 0 -37 -11 -66 -25 -30 -14 -57 -25 -61 -25 -8 0 -41
65 -41 79 0 4 32 23 70 40 40 19 70 39 70 47 0 27 -30 74 -48 74 -9 0 -57 -18
-107 -39z"/>
<path d="M3333 4672 c-14 -23 -188 -409 -197 -438 -4 -14 0 -26 14 -39 19 -17
21 -17 39 -1 11 10 34 51 53 92 18 41 38 74 43 74 19 0 75 -40 75 -54 0 -7
-11 -44 -25 -80 -30 -79 -31 -94 -7 -112 36 -28 47 -17 79 79 17 50 34 107 37
126 3 18 17 42 30 52 37 29 76 116 76 169 0 56 -16 73 -107 119 -72 36 -94 38
-110 13z m95 -122 c22 -14 32 -27 32 -45 0 -37 -28 -75 -56 -75 -32 0 -74 21
-74 37 0 23 42 103 54 103 6 0 26 -9 44 -20z"/>
<path d="M1323 4541 l-22 -18 130 -229 c72 -126 132 -231 135 -233 7 -8 64 22
64 34 0 6 -49 97 -109 201 -172 301 -156 280 -198 245z"/>
<path d="M1134 4426 c-17 -8 -41 -27 -53 -42 -51 -64 0 -218 113 -341 68 -74
119 -102 187 -103 37 0 50 5 74 29 26 28 27 34 23 98 -5 67 -29 133 -48 133
-6 0 -19 -9 -29 -19 -16 -16 -18 -29 -14 -79 5 -49 3 -60 -11 -65 -28 -11 -78
17 -127 70 -69 73 -105 151 -93 200 5 18 13 23 40 23 19 0 46 -7 59 -16 23
-15 27 -15 50 0 14 9 25 22 25 29 0 17 -67 68 -109 83 -45 16 -49 16 -87 0z"/>
<path d="M3803 4385 c-76 -33 -206 -189 -239 -287 -23 -70 -14 -125 26 -160
51 -46 121 -36 208 30 39 30 40 37 6 59 -24 15 -28 15 -57 1 -55 -28 -67 -28
-87 -8 -15 15 -19 28 -14 48 19 80 124 214 179 228 46 11 60 -6 60 -70 0 -46
4 -61 20 -72 10 -8 24 -13 30 -11 23 8 40 64 40 135 0 68 -2 76 -28 98 -33 28
-92 32 -144 9z"/>
<path d="M4088 4203 c-9 -10 -35 -56 -58 -103 -59 -118 -119 -206 -179 -265
-28 -27 -51 -55 -51 -61 0 -15 27 -44 40 -44 5 0 42 30 82 66 59 52 103 80
226 140 83 41 152 78 152 81 0 4 -12 19 -27 35 l-27 28 -94 -50 c-51 -28 -92
-47 -89 -43 2 5 26 45 52 91 l48 84 -20 26 c-25 33 -36 36 -55 15z"/>
<path d="M813 4161 c-36 -23 -45 -44 -45 -112 1 -68 40 -135 124 -214 135
-128 259 -157 318 -75 30 43 34 82 15 142 -15 43 -34 70 -109 144 -52 51 -111
100 -137 112 -57 27 -123 28 -166 3z m205 -126 c58 -45 122 -130 122 -162 0
-38 -18 -63 -46 -63 -85 0 -239 148 -232 222 6 67 73 68 156 3z"/>
<path d="M4298 3939 c-33 -25 -35 -38 -7 -73 11 -14 18 -30 15 -35 -3 -5 -61
-48 -128 -97 -160 -114 -208 -153 -208 -167 0 -7 8 -22 18 -34 l17 -22 110 80
c61 44 141 101 178 127 l68 46 25 -32 c14 -18 30 -32 36 -32 19 0 68 42 68 58
-1 26 -130 202 -149 202 -9 0 -28 -10 -43 -21z"/>
<path d="M605 3886 c-100 -44 -104 -156 -8 -235 75 -62 132 -63 225 -4 45 28
79 29 101 5 41 -45 3 -99 -61 -88 -31 5 -43 2 -57 -14 -9 -10 -15 -26 -11 -35
8 -23 68 -45 120 -45 36 0 52 6 80 31 63 55 58 134 -12 201 -80 77 -133 85
-226 33 -71 -40 -96 -43 -119 -17 -40 44 -10 88 52 78 30 -5 42 -2 56 14 23
25 13 48 -27 64 -56 23 -82 25 -113 12z"/>
<path d="M4360 3611 c-217 -89 -316 -231 -227 -327 28 -31 41 -37 85 -42 125
-12 327 89 388 194 40 69 26 141 -36 178 -39 22 -151 21 -210 -3z m158 -83
c23 -23 13 -60 -27 -98 -82 -79 -228 -124 -271 -85 -11 10 -20 27 -20 38 0 32
90 112 151 135 60 23 149 28 167 10z"/>
<path d="M1900 3579 c-224 -18 -467 -134 -643 -305 -234 -229 -349 -521 -334
-848 12 -270 109 -498 298 -700 334 -358 855 -457 1282 -246 215 107 398 283
510 490 39 73 83 188 74 196 -3 3 -43 -7 -89 -23 -71 -24 -99 -28 -193 -28
-103 0 -114 2 -175 32 -36 17 -77 40 -92 50 -28 17 -28 17 -44 -7 -10 -14 -49
-57 -88 -95 -74 -74 -161 -125 -246 -144 -58 -13 -202 -13 -260 0 -186 43
-362 222 -400 406 -18 86 -8 255 19 322 70 173 219 307 379 342 49 10 54 14
89 72 79 132 153 220 266 314 48 40 101 80 117 88 41 21 38 32 -12 46 -144 38
-300 51 -458 38z"/>
<path d="M2725 3555 c-246 -64 -458 -204 -608 -400 -65 -86 -158 -257 -173
-319 -8 -33 -15 -34 125 4 68 18 104 21 182 18 92 -3 103 -6 182 -47 l85 -42
78 78 c123 123 239 173 399 173 153 0 276 -51 386 -160 167 -165 205 -417 97
-638 -61 -125 -198 -233 -351 -277 -36 -10 -62 -25 -71 -38 -106 -177 -237
-320 -369 -401 -43 -27 -76 -54 -74 -60 2 -6 39 -21 82 -33 298 -86 637 -35
900 135 232 150 396 375 472 647 26 93 28 113 28 285 0 171 -2 192 -28 284
-81 292 -254 518 -516 676 -93 55 -223 105 -329 126 -46 9 -136 14 -240 14
-142 -1 -180 -4 -257 -25z"/>
<path d="M350 3481 c-21 -41 -12 -48 133 -106 78 -31 144 -59 146 -61 2 -2
-73 0 -166 3 -170 6 -170 6 -186 -17 -20 -29 -11 -43 52 -74 68 -34 406 -166
424 -166 18 0 35 47 21 59 -5 5 -56 28 -114 51 -58 23 -121 51 -140 62 l-35
19 55 -5 c30 -3 105 -8 166 -12 105 -6 113 -5 133 15 26 26 26 33 4 54 -17 14
-456 197 -474 197 -5 0 -13 -9 -19 -19z"/>
<path d="M4460 3237 c-124 -40 -231 -76 -237 -80 -14 -9 -18 -63 -5 -71 5 -3
46 6 92 19 87 26 110 23 110 -15 0 -10 12 -32 26 -49 24 -29 31 -31 90 -31
122 0 224 59 224 131 0 60 -38 169 -58 168 -9 0 -118 -33 -242 -72z m194 -62
c12 -47 -25 -85 -83 -85 -20 0 -35 8 -45 22 -28 39 -20 56 32 72 71 22 89 20
96 -9z"/>
<path d="M202 3034 c-5 -11 -12 -30 -13 -43 -4 -23 11 -32 221 -129 124 -57
239 -105 255 -106 27 -1 30 3 33 30 3 27 -2 33 -31 48 -19 9 -40 16 -46 16 -7
0 -9 14 -5 43 9 65 9 66 66 69 47 3 54 6 62 31 18 49 8 51 -273 55 -245 4
-260 3 -269 -14z m306 -69 c15 -5 16 -41 1 -51 -11 -7 -139 43 -139 55 0 7
113 3 138 -4z"/>
<path d="M4265 2933 c4 -15 8 -33 10 -40 2 -7 27 -15 55 -19 57 -7 70 -22 70
-77 0 -30 -5 -36 -42 -53 -34 -15 -44 -25 -46 -48 -7 -60 -4 -59 322 70 196
77 196 77 196 108 0 55 -3 56 -201 66 -101 5 -226 12 -277 15 l-93 6 6 -28z
m370 -72 c15 -6 5 -13 -49 -31 -57 -18 -70 -20 -77 -9 -16 26 -9 38 24 42 54
6 81 6 102 -2z"/>
<path d="M146 2723 c-3 -21 -6 -75 -6 -120 0 -78 1 -83 23 -87 35 -8 459 -29
487 -25 29 5 36 33 41 164 l4 80 -51 3 -51 3 -7 -38 c-3 -21 -6 -52 -6 -70 0
-63 -17 -73 -99 -57 l-31 7 0 78 c0 75 -1 79 -22 79 -65 -1 -71 -8 -83 -102
l-6 -48 -45 0 -45 0 2 74 c1 40 -1 78 -5 85 -4 6 -27 11 -50 11 -42 0 -44 -1
-50 -37z"/>
<path d="M2113 2721 c-49 -13 -120 -58 -149 -96 -49 -65 -65 -154 -42 -243 16
-66 103 -153 173 -172 64 -18 140 -17 187 3 54 23 131 104 146 153 19 65 15
161 -9 211 -50 104 -195 172 -306 144z"/>
<path d="M2700 2709 c-36 -14 -108 -87 -133 -134 -32 -61 -29 -166 7 -239 46
-93 119 -135 239 -136 148 -1 259 108 261 255 0 79 -18 129 -67 183 -62 66
-101 82 -199 81 -46 0 -94 -5 -108 -10z"/>
<path d="M4773 2710 c-19 -8 -23 -17 -23 -50 0 -31 -4 -40 -17 -41 -10 -1
-108 -4 -218 -8 l-200 -6 0 -40 0 -40 50 1 c28 0 127 2 220 4 l170 4 3 -41 3
-41 50 -4 49 -3 0 112 c0 158 -14 182 -87 153z"/>
<path d="M610 2448 c-25 -5 -74 -16 -110 -25 -36 -9 -76 -15 -90 -14 -115 9
-167 5 -199 -14 -19 -11 -43 -32 -53 -46 -18 -24 -19 -33 -9 -114 6 -49 14
-92 19 -97 7 -7 478 36 515 48 13 4 17 14 15 37 l-3 32 -80 -3 c-44 -2 -93 -5
-109 -9 l-29 -5 5 47 c3 26 10 51 14 55 5 5 45 13 89 19 44 6 83 15 88 20 11
11 5 74 -8 76 -5 2 -30 -2 -55 -7z m-242 -125 c5 -10 12 -34 15 -54 l5 -36
-60 -7 c-34 -3 -63 -4 -65 -2 -3 2 -7 23 -10 47 -5 34 -2 45 12 56 28 19 92
17 103 -4z"/>
<path d="M4331 2412 c-15 -5 -14 -59 1 -68 6 -4 54 -12 107 -18 l96 -11 3 -44
c5 -70 8 -69 -120 -55 -62 7 -117 8 -122 4 -15 -15 4 -70 27 -75 47 -10 491
-54 499 -49 7 5 12 73 6 75 -2 0 -40 4 -86 8 -46 5 -88 13 -93 18 -7 7 -6 26
2 56 l11 47 57 -5 c31 -3 72 -8 92 -10 27 -4 38 -1 43 11 8 22 8 52 -1 57 -18
11 -503 65 -522 59z"/>
<path d="M442 2094 c-76 -20 -156 -61 -193 -100 -26 -27 -33 -43 -37 -87 -4
-46 -1 -57 22 -84 53 -63 171 -74 311 -29 142 45 215 111 215 192 0 81 -66
124 -190 123 -41 0 -99 -7 -128 -15z m186 -80 c14 -10 22 -26 22 -44 0 -56
-99 -107 -228 -117 -61 -5 -75 -3 -92 12 -50 46 6 114 125 151 57 18 146 17
173 -2z"/>
<path d="M4312 2066 c-75 -35 -103 -106 -68 -174 43 -83 222 -162 365 -162
112 0 171 45 171 128 0 80 -66 141 -204 189 -90 31 -217 40 -264 19z m180 -77
c64 -13 165 -65 179 -92 16 -29 2 -66 -29 -78 -36 -14 -127 -4 -193 21 -115
44 -150 113 -75 146 38 16 52 17 118 3z"/>
<path d="M689 1788 c-45 -51 -97 -109 -114 -129 l-32 -36 -99 13 c-157 21
-163 19 -129 -46 14 -26 20 -29 92 -35 135 -11 138 -13 61 -49 -88 -41 -95
-48 -80 -81 6 -14 19 -25 27 -25 17 0 364 156 430 193 44 25 52 43 32 70 -12
18 -17 17 -90 -12 -72 -29 -117 -39 -117 -26 0 3 34 44 75 91 l74 86 -19 39
c-11 21 -22 39 -25 39 -2 0 -41 -42 -86 -92z"/>
<path d="M4182 1787 c-18 -22 -82 -161 -82 -179 0 -18 47 -48 74 -48 9 0 29
26 46 61 28 54 34 60 56 55 13 -4 101 -43 194 -88 164 -78 171 -81 185 -62 33
44 25 50 -211 165 -125 60 -232 109 -239 109 -7 0 -17 -6 -23 -13z"/>
<path d="M4009 1492 c-31 -28 -34 -35 -34 -89 0 -48 5 -66 30 -102 39 -57 134
-134 214 -173 56 -27 71 -30 133 -26 63 3 73 7 95 33 22 25 25 36 21 91 -3 51
-9 69 -37 105 -81 104 -212 181 -322 187 -62 4 -68 2 -100 -26z m227 -98 c109
-65 158 -130 136 -179 -26 -58 -167 -10 -257 86 -69 74 -61 129 20 129 29 0
58 -10 101 -36z"/>
<path d="M933 1464 c-18 -14 -33 -30 -33 -35 0 -6 20 -39 45 -73 25 -35 45
-66 45 -69 0 -7 -82 -67 -92 -67 -4 0 -26 25 -49 55 -23 30 -47 55 -53 55 -13
0 -66 -51 -66 -64 0 -4 18 -33 39 -65 l39 -57 -32 -22 c-18 -12 -37 -22 -43
-22 -6 0 -29 25 -52 55 -23 30 -48 55 -56 55 -8 0 -27 -11 -42 -24 l-28 -25
18 -33 c24 -43 115 -158 126 -158 10 0 289 210 369 278 30 25 51 50 48 58 -7
18 -138 184 -145 184 -3 0 -21 -12 -38 -26z"/>
<path d="M984 1092 c-229 -242 -211 -218 -189 -242 10 -11 23 -20 29 -20 6 0
41 30 77 66 l67 66 25 -18 c14 -11 31 -29 38 -41 11 -20 6 -28 -50 -89 -33
-37 -61 -71 -61 -75 0 -5 12 -16 26 -25 l25 -17 100 99 c55 54 140 142 189
195 l89 96 -31 23 -31 23 -79 -81 c-43 -45 -81 -82 -85 -82 -3 0 -23 15 -44
34 l-38 35 80 85 c68 73 79 88 70 104 -9 16 -31 32 -45 32 -2 0 -75 -75 -162
-168z"/>
<path d="M3796 1237 c-15 -15 -28 -43 -32 -67 -5 -32 -10 -39 -24 -35 -9 3
-23 -2 -30 -10 -12 -14 0 -30 88 -118 l102 -102 45 45 c25 24 45 49 45 55 0 6
-11 22 -25 35 -26 24 -27 24 -86 -7 -10 -6 -29 47 -29 83 0 28 5 36 26 44 79
31 272 -158 250 -244 -8 -31 -46 -44 -83 -27 -30 14 -59 6 -73 -19 -19 -36 54
-80 134 -80 36 0 52 6 81 31 32 29 35 36 35 86 0 76 -43 155 -130 237 -78 73
-144 108 -216 114 -46 4 -56 1 -78 -21z"/>
<path d="M3556 1011 c-17 -19 -16 -22 27 -83 61 -86 79 -125 132 -278 53 -156
51 -153 73 -140 55 32 55 30 16 125 -19 48 -34 91 -32 97 2 5 38 -18 81 -52
81 -65 97 -69 133 -29 19 21 19 22 -1 35 -170 117 -265 196 -319 267 -61 80
-81 90 -110 58z"/>
<path d="M1399 977 c-14 -17 -67 -91 -117 -164 -51 -73 -97 -135 -102 -138 -6
-4 -23 3 -39 14 -16 12 -34 21 -40 21 -12 0 -51 -58 -51 -76 0 -7 46 -44 102
-84 l102 -72 28 33 c35 42 35 53 -2 81 -18 13 -28 28 -25 36 3 8 55 86 115
172 61 87 110 164 110 172 0 19 -20 38 -39 38 -9 0 -28 -15 -42 -33z"/>
<path d="M2036 765 c-15 -19 -36 -35 -47 -35 -32 0 -56 -17 -63 -46 -8 -32 8
-54 40 -54 32 0 31 -4 -16 -200 -22 -91 -40 -173 -40 -182 0 -18 40 -34 62
-25 15 5 142 524 136 553 -6 34 -42 28 -72 -11z"/>
<path d="M2784 766 c-18 -8 -37 -28 -47 -49 -36 -75 -11 -335 43 -450 44 -93
114 -115 176 -53 33 33 34 36 34 120 0 97 -24 178 -64 215 -30 28 -89 31 -117
5 -18 -16 -19 -16 -19 7 0 49 13 101 27 106 8 3 24 -4 37 -16 26 -24 45 -26
71 -7 18 13 18 15 -3 58 -31 62 -84 87 -138 64z m105 -322 c39 -50 22 -184
-20 -159 -18 12 -49 87 -49 122 0 30 21 63 40 63 5 0 18 -12 29 -26z"/>
<path d="M2244 742 c-82 -52 -111 -266 -47 -343 24 -28 31 -31 70 -26 37 4 43
2 43 -15 0 -22 -28 -80 -43 -90 -15 -9 -35 1 -42 23 -12 38 -66 47 -79 14 -8
-23 15 -89 42 -117 52 -56 121 -30 167 61 43 86 69 325 44 413 -22 83 -93 119
-155 80z m80 -114 c10 -39 7 -87 -9 -124 -11 -28 -19 -35 -37 -32 -58 8 -37
178 22 178 10 0 20 -10 24 -22z"/>
<path d="M2509 735 c-15 -8 -34 -30 -43 -49 -20 -43 -21 -135 -1 -182 13 -32
13 -39 -2 -67 -20 -39 -22 -126 -4 -189 35 -122 161 -137 212 -25 27 60 26
169 -2 221 -17 32 -19 44 -10 63 6 13 11 56 11 95 0 68 -1 71 -39 109 -42 43
-76 49 -122 24z m79 -153 c2 -40 -1 -54 -13 -58 -26 -10 -45 15 -45 61 0 48 6
57 35 53 17 -3 20 -11 23 -56z m12 -191 c23 -44 6 -141 -25 -141 -37 0 -63
118 -33 148 18 18 46 14 58 -7z"/>
<path d="M1544 630 c-46 -18 -31 -92 19 -98 38 -5 57 14 57 54 0 28 -5 36 -26
44 -14 6 -26 10 -27 9 -1 0 -12 -4 -23 -9z"/>
<path d="M3266 589 c-46 -36 -26 -99 33 -99 67 0 70 76 5 113 -7 4 -23 -3 -38
-14z"/>
</g>
</svg>
