<?xml version="1.0" standalone="no"?>
<!DOCTYPE svg PUBLIC "-//W3C//DTD SVG 20010904//EN"
 "http://www.w3.org/TR/2001/REC-SVG-20010904/DTD/svg10.dtd">
<svg version="1.0" xmlns="http://www.w3.org/2000/svg"
 width="542.350036pt" height="579.700989pt" viewBox="0 0 542.350036 579.700989"
 preserveAspectRatio="xMidYMid meet">
<metadata>
Created by potrace 1.16, written by Peter Selinger 2001-2019
</metadata>
<g transform="translate(-31.647757,598.857029) scale(0.100000,-0.100000)"
fill="#353360" stroke="none">
<path d="M3293 5974 c-110 -24 -218 -93 -284 -181 -41 -54 -509 -900 -509
-919 0 -7 22 -27 50 -45 56 -36 56 -37 65 -139 3 -41 8 -87 11 -101 5 -24 0
-28 -58 -49 -35 -12 -98 -40 -141 -62 -43 -23 -79 -39 -81 -37 -2 2 -26 89
-54 194 l-50 190 52 56 c38 41 116 173 309 519 289 521 275 477 174 521 -40
18 -76 24 -158 27 -165 6 -258 -25 -367 -123 -83 -75 -124 -138 -342 -530
-117 -209 -225 -403 -241 -432 l-30 -52 43 -31 c23 -17 68 -39 99 -48 l57 -17
97 -304 97 -304 -30 -76 c-40 -102 -52 -165 -52 -272 0 -275 140 -505 347
-569 36 -11 71 -20 79 -20 7 0 117 146 245 324 148 207 239 326 253 330 37 10
82 6 102 -8 16 -12 19 -27 19 -94 l0 -79 -149 -199 c-82 -109 -161 -214 -175
-233 l-26 -34 41 5 c66 9 144 54 217 126 l67 66 0 76 0 76 35 13 35 12 0 199
c0 217 1 222 60 235 36 8 38 17 8 30 -22 10 -23 17 -28 155 -3 80 -9 153 -14
164 -13 27 9 36 90 36 84 0 101 -11 79 -54 -11 -21 -15 -64 -15 -161 0 -125
-1 -134 -20 -140 -29 -9 -24 -22 12 -29 56 -11 58 -17 58 -153 0 -125 0 -125
23 -119 108 33 142 39 222 39 188 0 359 -79 476 -220 77 -94 140 -245 155
-372 3 -33 10 -58 15 -55 5 3 9 13 9 23 0 10 80 137 178 282 98 145 272 404
386 574 114 171 214 316 221 323 10 11 15 -7 29 -95 9 -59 22 -164 30 -232
l13 -124 -316 -396 c-1210 -1516 -1133 -1421 -1163 -1421 -15 0 -28 2 -28 4 0
3 66 114 146 248 103 172 164 262 209 309 73 78 149 181 171 234 24 58 44 178
44 264 0 96 -28 211 -72 294 -62 116 -205 235 -337 280 -117 40 -277 30 -382
-23 -37 -19 -40 -24 -37 -58 3 -34 6 -37 38 -42 l35 -5 3 -78 c3 -92 -5 -107
-59 -107 -36 0 -38 -2 -28 -18 26 -42 -21 -148 -74 -166 -39 -14 -72 8 -102
68 -27 55 -31 86 -13 104 9 9 3 12 -29 12 -32 0 -43 -4 -48 -19 -3 -11 -32
-47 -64 -80 -68 -70 -165 -122 -265 -141 -58 -11 -66 -15 -80 -45 -33 -69 25
-120 84 -76 28 20 38 21 373 21 380 0 371 1 365 -62 l-3 -33 -276 -3 -277 -2
-6 -31 c-3 -18 -6 -36 -6 -41 0 -5 97 -7 228 -6 l227 3 0 -30 0 -30 -135 -3
c-83 -2 -143 1 -155 8 -11 6 -52 10 -90 8 l-70 -3 0 -45 0 -45 300 -5 300 -5
0 -50 0 -50 -500 0 -500 0 1 47 c0 31 10 67 31 109 l31 63 -41 60 c-43 64 -67
134 -67 198 0 33 -3 38 -23 38 -60 0 -291 139 -346 209 -75 94 -111 217 -119
401 -5 130 -6 134 -20 100 l-14 -35 -33 70 c-18 39 -132 277 -254 529 -122
253 -219 461 -216 464 2 3 37 12 77 21 l73 17 202 364 c111 201 202 371 202
377 1 8 -9 11 -26 8 -644 -106 -1017 -214 -1136 -330 -142 -138 -303 -692
-381 -1315 -46 -358 -59 -586 -60 -995 0 -395 9 -549 55 -910 77 -608 239
-1274 352 -1442 28 -42 47 -55 142 -103 286 -143 800 -261 1375 -315 549 -51
1340 -43 1883 20 584 68 1016 188 1194 332 168 135 327 732 387 1453 28 334
36 537 36 939 0 917 -77 1598 -231 2037 -36 105 -98 223 -141 273 -71 82 -200
152 -407 221 -120 41 -402 110 -445 110 -19 0 -47 -45 -191 -306 -124 -226
-165 -308 -155 -314 7 -4 34 -11 61 -14 27 -4 49 -10 49 -14 0 -4 -66 -195
-147 -425 l-148 -418 -29 38 c-16 21 -67 76 -114 121 l-85 84 52 251 c43 208
56 253 73 266 69 48 97 90 323 496 130 234 239 433 242 443 7 28 -80 70 -175
84 -107 16 -244 -6 -340 -53 -120 -59 -150 -99 -415 -559 -131 -227 -236 -419
-233 -427 3 -8 31 -25 61 -39 30 -14 55 -30 55 -36 0 -19 -21 -203 -25 -214
-2 -8 -22 -6 -68 6 -54 15 -211 40 -253 40 -8 0 -12 36 -13 110 l-2 110 79 78
c76 75 84 88 330 531 280 504 264 458 177 499 -88 42 -214 52 -332 26z m925
-268 c71 -70 -18 -188 -107 -142 -35 19 -51 44 -51 81 0 83 98 121 158 61z
m292 -782 c116 -27 200 -52 213 -64 5 -4 -118 -259 -274 -565 l-283 -558 -23
69 c-13 38 -45 112 -72 165 l-48 95 154 435 c84 239 155 440 158 446 5 14 22
12 175 -23z m-2907 -709 l245 -510 -15 -75 c-10 -52 -13 -124 -11 -237 2 -89
3 -161 2 -160 -10 17 -445 689 -564 872 l-162 249 12 61 c23 122 61 261 85
310 16 34 38 59 67 78 l43 27 26 -52 c15 -29 137 -282 272 -563z m2192 593
c-3 -13 -23 -108 -45 -212 -22 -104 -41 -191 -44 -193 -2 -2 -30 12 -61 32
-32 21 -92 53 -134 73 -42 19 -78 37 -80 38 -2 2 3 57 10 123 l13 121 37 -6
c44 -7 193 11 246 31 55 20 64 19 58 -7z m1029 -10 c13 -18 34 -57 45 -86 21
-52 81 -275 81 -299 0 -6 -95 -153 -211 -325 -116 -172 -284 -422 -372 -554
l-162 -241 -7 171 c-4 94 -8 176 -9 182 -2 10 310 637 412 830 20 39 69 135
108 212 39 78 75 142 81 142 5 0 20 -15 34 -32z m-1835 -119 l1 -57 -77 -7
c-43 -4 -111 -13 -152 -21 -41 -7 -76 -13 -77 -11 -3 3 -24 164 -24 182 0 6
40 10 103 11 73 1 118 6 157 20 l55 19 7 -40 c3 -22 7 -65 7 -96z m-742 -81
l51 -193 -82 -76 c-45 -42 -95 -95 -110 -118 -16 -23 -33 -38 -37 -34 -6 7
-169 513 -169 527 0 3 16 6 36 6 56 0 165 28 209 54 22 13 43 25 46 25 3 1 28
-86 56 -191z m-1444 -142 c76 -13 140 -26 143 -29 3 -2 2 -23 -2 -46 l-7 -42
-46 6 c-25 4 -54 9 -63 12 -30 8 -21 -9 36 -67 53 -53 55 -56 49 -98 l-6 -44
-56 56 -56 56 -103 -32 c-56 -17 -105 -29 -108 -26 -3 4 -2 27 1 52 7 45 7 45
60 57 29 6 59 15 66 20 22 13 -19 48 -64 56 -37 6 -39 7 -33 36 3 16 6 36 6
43 0 19 23 18 183 -10z m4632 -9 c57 -57 70 -159 27 -217 -29 -38 -47 -36 -64
7 -12 32 -13 41 -1 51 15 14 17 60 4 81 -15 24 -41 5 -41 -31 0 -106 -33 -158
-98 -158 -51 0 -86 28 -108 85 -21 56 -14 118 17 151 l23 25 18 -36 c14 -26
16 -40 8 -54 -14 -28 -13 -47 6 -65 24 -24 30 -13 38 63 8 87 12 98 45 116 46
25 89 19 126 -18z m-3951 -785 c285 -440 386 -604 412 -670 64 -159 138 -272
262 -404 44 -46 122 -154 211 -292 182 -282 170 -256 123 -256 l-39 0 -414
523 c-227 287 -548 692 -713 900 l-299 379 16 136 c29 247 38 295 52 280 7 -7
182 -275 389 -596z m-722 428 c116 -33 152 -181 64 -268 -31 -31 -43 -36 -95
-40 -114 -8 -196 58 -194 159 1 64 28 109 83 137 48 24 85 27 142 12z m4498
-19 c0 -17 4 -32 8 -35 5 -3 63 3 131 13 86 13 124 15 126 7 2 -6 6 -27 8 -47
l5 -37 -51 -6 c-29 -4 -87 -11 -131 -18 l-78 -11 5 -33 c5 -30 3 -33 -24 -39
-17 -4 -33 -4 -36 -1 -6 6 -32 173 -33 208 0 16 16 24 53 27 12 1 17 -7 17
-28z m244 -275 c41 -17 76 -84 76 -145 0 -51 -32 -117 -61 -126 -24 -8 -23 -9
-37 34 -10 29 -9 37 8 58 24 30 25 51 5 77 -20 27 -35 11 -46 -51 -13 -72 -29
-102 -60 -118 -41 -22 -64 -18 -103 15 -64 57 -70 165 -11 220 l24 22 15 -37
c14 -33 14 -39 -1 -61 -13 -20 -14 -30 -5 -49 22 -48 42 -28 53 54 11 76 41
112 102 120 4 1 23 -5 41 -13z m-458 -216 c5 -91 8 -178 9 -194 0 -24 -89
-116 -667 -688 -658 -650 -667 -659 -703 -656 l-37 3 689 862 c405 507 691
857 695 850 3 -7 10 -86 14 -177z m-3365 -650 c355 -448 657 -832 673 -853
l28 -37 -28 0 c-21 0 -47 18 -108 78 -214 205 -672 647 -948 916 -251 243
-308 303 -308 325 0 44 19 313 26 360 3 24 9 39 13 35 4 -5 298 -376 652 -824z
m-988 756 c77 -8 141 -16 143 -19 6 -6 -16 -195 -26 -221 -14 -38 -49 -61 -92
-61 -34 0 -45 6 -69 35 l-29 34 -67 -22 c-37 -12 -68 -20 -70 -19 -1 2 0 26 4
54 l6 51 63 18 c59 16 82 34 68 55 -3 5 -32 9 -65 9 -58 0 -59 1 -59 28 0 49
11 72 34 72 11 0 83 -7 159 -14z m4897 -316 l0 -50 -43 0 c-24 0 -99 -3 -165
-7 l-122 -6 0 51 0 51 133 4 c72 1 147 4 165 5 l32 2 0 -50z m-4787 -81 c2 -2
0 -58 -3 -124 l-5 -120 -34 -3 -33 -3 3 78 c4 78 4 78 -22 81 -30 3 -39 -15
-39 -80 0 -37 -1 -38 -36 -38 l-37 0 6 60 7 60 -35 0 -35 0 0 -76 0 -75 -37 3
-38 3 4 120 c1 66 4 122 6 125 3 6 324 -5 328 -11z m4247 -894 c-6 -126 -13
-258 -17 -292 l-6 -63 -612 0 -612 0 466 463 c256 255 538 534 626 620 l160
156 3 -327 c2 -180 -2 -430 -8 -557z m-3559 378 c272 -262 553 -535 624 -605
l130 -128 -606 0 -606 0 -17 183 c-9 100 -21 256 -26 347 -12 200 -13 680 -2
680 5 0 231 -215 503 -477z m3874 397 c6 -36 4 -43 -24 -69 -38 -35 -38 -44
-5 -70 41 -32 136 -30 169 4 30 29 31 39 5 65 -25 25 -40 18 -40 -16 0 -22 -4
-25 -32 -22 -39 4 -43 16 -33 95 l7 55 81 -6 c45 -3 85 -5 90 -6 14 0 7 -50
-7 -50 -11 0 -10 -8 6 -37 23 -45 19 -103 -9 -142 -61 -83 -234 -83 -296 1
-53 71 -30 187 44 225 35 18 37 17 44 -27z m-4728 -260 c86 -22 158 -40 160
-40 2 0 3 -25 1 -56 l-3 -57 -150 -53 c-82 -29 -156 -53 -162 -53 -9 -1 -13
14 -13 44 0 42 2 46 36 60 35 14 36 16 29 57 -9 54 -12 58 -36 58 -19 0 -39
34 -39 66 0 19 2 19 177 -26z m4843 -102 c61 -31 90 -77 90 -143 0 -92 -66
-155 -162 -155 -87 0 -150 42 -169 113 -39 145 103 254 241 185z m-4660 -288
l0 -48 -75 -54 c-41 -29 -75 -56 -75 -60 0 -4 12 -6 28 -3 15 2 53 7 85 10
l57 5 0 -40 c0 -25 -5 -40 -12 -40 -7 0 -74 -7 -148 -15 -185 -20 -170 -22
-170 28 1 41 2 43 90 106 50 35 90 67 90 71 0 3 -26 3 -57 -1 -32 -4 -77 -8
-99 -8 -40 -1 -42 0 -46 34 -2 19 -2 35 2 36 45 7 317 34 323 31 4 -2 7 -25 7
-52z m2843 -128 c-160 -274 -210 -352 -225 -352 -10 0 -18 2 -18 3 0 2 31 74
68 160 l68 157 65 39 c35 22 65 40 67 41 2 0 -9 -22 -25 -48z m-1185 -38 c27
-16 44 -43 97 -158 36 -77 65 -143 65 -148 0 -4 -9 -8 -20 -8 -15 0 -51 48
-145 191 -69 104 -125 192 -125 194 0 2 21 -9 48 -24 26 -16 62 -37 80 -47z
m3071 60 c2 -1 0 -53 -4 -115 l-7 -111 -52 5 c-28 4 -102 10 -163 13 l-113 7
0 54 c0 47 2 54 18 49 9 -2 68 -8 130 -11 l112 -7 0 50 c0 73 6 84 44 76 17
-3 33 -8 35 -10z m-2079 -116 c-4 -13 -31 -75 -59 -138 -49 -114 -50 -115 -85
-118 l-36 -3 44 122 c41 119 44 124 82 140 55 25 65 24 54 -3z m-771 -126 c18
-59 35 -113 38 -119 3 -8 -3 -13 -14 -13 -14 0 -33 32 -79 134 l-61 134 41
-14 41 -14 34 -108z m574 -21 c-28 -81 -42 -111 -54 -111 -18 0 -18 2 18 145
15 59 22 70 43 76 14 3 26 5 28 3 2 -1 -14 -52 -35 -113z m-476 4 c27 -118 26
-115 10 -115 -7 0 -25 39 -41 93 -43 140 -42 129 -16 125 21 -3 26 -14 47
-103z m98 8 c3 -43 8 -88 11 -101 4 -18 1 -23 -13 -20 -12 2 -22 22 -33 73 -9
39 -19 82 -23 98 -7 25 -5 27 22 27 l29 0 7 -77z m295 70 c0 -29 -44 -193 -52
-193 -6 0 -8 14 -5 33 3 17 9 62 13 100 5 57 9 67 25 67 11 0 19 -3 19 -7z
m-190 -98 c0 -87 -2 -95 -19 -95 -17 0 -20 10 -26 78 -4 42 -9 85 -11 95 -4
13 1 17 25 17 l31 0 0 -95z m89 23 c-4 -40 -8 -83 -8 -95 -1 -14 -7 -23 -16
-23 -12 0 -15 17 -15 95 0 92 1 95 23 95 22 0 23 -2 16 -72z m2347 -75 c46
-24 84 -83 84 -133 0 -52 -38 -120 -80 -142 -73 -38 -188 -16 -233 44 -21 28
-33 102 -23 142 8 34 54 86 91 102 39 18 112 12 161 -13z m-420 -170 c-30
-304 -107 -643 -168 -741 -80 -130 -446 -230 -1058 -288 -226 -21 -990 -30
-1272 -15 -504 28 -906 92 -1133 180 -102 39 -142 72 -172 140 -38 84 -98 333
-132 546 -17 105 -33 202 -36 218 l-4 27 1991 0 1991 0 -7 -67z m465 -243 c6
0 4 -26 -6 -76 -4 -19 -9 -21 -47 -13 -80 15 -86 13 -93 -32 -4 -22 -5 -42 -3
-45 3 -2 33 -7 67 -10 l62 -7 -7 -46 c-4 -25 -7 -47 -8 -48 -3 -4 -316 44
-322 50 -3 3 -3 24 1 46 l7 41 55 -7 c61 -7 73 1 73 50 0 30 -4 33 -71 42 -50
6 -49 4 -34 80 l4 21 158 -23 c87 -12 161 -23 164 -23z m-4532 -125 c51 -59
60 -148 20 -199 l-21 -27 -24 38 c-14 24 -19 42 -13 48 14 15 11 61 -7 76 -23
19 -34 -4 -34 -73 0 -31 -5 -68 -11 -81 -22 -49 -94 -65 -144 -33 -65 43 -86
187 -35 241 13 14 26 25 30 25 3 0 14 -16 23 -36 16 -32 16 -37 2 -57 -8 -12
-15 -31 -15 -43 0 -23 36 -61 47 -50 4 4 10 41 14 82 7 94 30 124 95 124 35 0
47 -5 73 -35z m4199 -192 c21 -5 23 -10 18 -38 -8 -39 -16 -34 133 -66 l113
-24 -6 -44 c-3 -25 -7 -45 -9 -47 -1 -1 -58 10 -127 25 -131 29 -140 28 -140
-17 0 -21 -3 -23 -32 -17 -18 4 -35 9 -36 10 -8 7 43 225 53 225 5 0 21 -3 33
-7z m-4131 -163 c77 -47 97 -178 37 -241 -83 -89 -234 -76 -283 24 -45 92 -11
178 89 224 41 19 121 16 157 -7z m4184 -225 c80 -14 149 -25 153 -25 3 0 -4
-19 -17 -42 -22 -39 -26 -43 -60 -40 -33 3 -38 0 -56 -36 l-20 -39 26 -25 c24
-25 24 -26 8 -57 -9 -18 -20 -31 -24 -29 -5 2 -62 54 -126 116 l-118 113 23
50 c19 39 27 48 44 44 12 -2 87 -16 167 -30z m-3908 -71 c38 -20 67 -71 67
-116 0 -42 0 -42 -52 -28 -31 9 -37 15 -40 42 -4 38 -30 58 -55 42 -10 -6 -28
-30 -40 -54 -49 -95 -11 -180 52 -120 20 19 24 19 58 5 43 -18 44 -23 17 -58
-46 -58 -150 -54 -210 8 -26 26 -34 45 -38 83 -15 158 113 262 241 196z m3526
-65 c58 -20 81 -111 40 -163 -13 -16 -41 -32 -75 -42 -30 -8 -54 -19 -54 -23
0 -4 7 -30 15 -57 8 -27 15 -50 15 -50 0 -7 -95 -23 -100 -17 -4 4 -14 37 -23
73 -9 36 -27 104 -41 152 l-24 87 102 25 c122 30 107 28 145 15z m-3249 -14
c4 -3 -3 -51 -17 -107 -13 -57 -28 -123 -34 -148 -15 -68 -18 -71 -64 -59 -22
6 -42 13 -43 14 -2 2 13 74 34 160 l37 157 40 -6 c22 -4 43 -9 47 -11z m230
-46 c63 -11 117 -22 118 -24 2 -2 1 -17 -3 -33 l-6 -29 -71 13 c-40 8 -73 13
-74 11 -1 -1 -5 -14 -9 -29 -7 -28 -13 -25 85 -44 27 -5 29 -8 23 -37 -3 -18
-7 -33 -8 -35 -1 -1 -24 2 -50 8 -59 13 -75 8 -75 -24 0 -27 4 -29 95 -44 48
-7 50 -9 47 -37 -2 -17 -7 -33 -10 -37 -6 -5 -231 30 -241 38 -5 5 53 324 59
324 3 0 57 -9 120 -21z m330 -49 c46 -5 87 -10 90 -10 3 0 4 -16 2 -36 -4 -34
-6 -36 -37 -30 -39 8 -38 11 -56 -146 -12 -107 -12 -108 -38 -108 -69 0 -69 0
-55 113 19 152 19 153 -16 161 -25 4 -30 10 -30 34 0 35 7 43 34 37 12 -3 59
-9 106 -15z m279 -77 c14 -29 28 -53 32 -53 5 0 20 20 35 45 25 43 28 45 71
45 l45 0 -18 -27 c-9 -16 -37 -57 -61 -93 -31 -47 -43 -75 -43 -101 0 -20 -3
-51 -6 -68 -6 -29 -9 -31 -52 -31 l-45 0 6 74 c6 72 6 75 -38 165 -25 51 -45
95 -45 97 0 3 21 4 48 2 46 -3 47 -4 71 -55z m1504 30 c3 -16 3 -30 0 -33 -2
-3 -35 -7 -71 -10 -67 -5 -67 -5 -67 -35 0 -30 1 -30 55 -30 55 0 55 0 58 -32
l3 -32 -53 -3 -53 -3 2 -67 2 -66 -48 -4 -49 -3 -6 105 c-4 58 -9 133 -12 167
l-6 62 68 4 c180 9 171 10 177 -20z m-395 -19 c45 -33 74 -101 68 -157 -10
-94 -62 -148 -148 -154 -103 -8 -168 58 -168 173 0 72 25 119 80 147 45 23
130 18 168 -9z"/>
<path d="M616 3974 c-19 -18 -19 -20 -5 -46 35 -65 207 -61 197 5 -7 48 -154
79 -192 41z"/>
<path d="M687 3558 c-6 -40 7 -68 31 -68 27 0 42 20 42 57 0 26 -4 33 -19 33
-11 0 -26 3 -34 6 -10 4 -16 -4 -20 -28z"/>
<path d="M600 2815 c0 -28 9 -30 57 -13 41 15 42 24 2 32 -51 10 -59 8 -59
-19z"/>
<path d="M5316 2701 c-40 -44 8 -83 101 -85 88 -1 121 54 52 89 -42 22 -132
20 -153 -4z"/>
<path d="M5259 1979 c-18 -18 -19 -23 -6 -42 41 -62 197 -59 197 4 0 52 -147
82 -191 38z"/>
<path d="M1742 1878 c-8 -8 -12 -46 -12 -105 l0 -93 -40 0 -40 0 0 95 c0 76
-3 97 -15 101 -8 4 -22 1 -30 -6 -22 -18 -22 -452 0 -470 8 -7 22 -10 30 -6
12 4 15 26 15 116 l0 110 40 0 40 0 0 -109 c0 -113 10 -141 45 -127 13 5 15
41 15 250 0 213 -2 245 -16 250 -20 8 -18 8 -32 -6z"/>
<path d="M2316 1874 c-22 -22 -24 -330 -2 -360 12 -15 18 -17 33 -8 14 9 19
26 21 77 3 59 5 66 25 69 30 4 30 42 0 46 -22 3 -23 8 -23 87 0 73 -3 86 -19
95 -15 7 -23 6 -35 -6z"/>
<path d="M2912 1878 c-7 -7 -12 -24 -12 -39 0 -26 -3 -27 -55 -31 -49 -3 -55
-1 -55 17 -1 55 -53 62 -58 7 l-3 -32 -74 0 -74 0 -3 33 c-2 27 -7 32 -28 32
l-25 0 -3 -123 -3 -122 26 -10 c15 -6 67 -10 116 -10 76 0 92 3 110 21 16 16
30 19 72 17 48 -3 52 -5 55 -30 3 -28 22 -41 47 -32 12 5 15 31 15 148 0 133
-6 166 -30 166 -3 0 -11 -5 -18 -12z m-12 -153 c0 -33 0 -33 -55 -37 l-55 -3
0 40 0 40 55 -3 c55 -4 55 -4 55 -37z m-172 -22 l-3 -38 -72 -3 -73 -3 0 41 0
40 76 0 75 0 -3 -37z"/>
<path d="M3492 1878 c-9 -9 -12 -77 -12 -244 0 -242 4 -263 44 -248 14 5 16
34 16 249 0 212 -2 244 -16 249 -20 8 -18 8 -32 -6z"/>
<path d="M4062 1878 c-8 -8 -12 -59 -12 -165 0 -135 2 -153 18 -161 33 -17 42
-3 42 63 0 62 1 64 28 67 19 2 27 9 27 23 0 14 -8 21 -27 23 -28 3 -28 4 -28
77 0 57 -3 74 -16 79 -20 8 -18 8 -32 -6z"/>
<path d="M4657 1883 c-4 -3 -7 -116 -7 -250 0 -208 2 -244 15 -249 8 -4 22 -1
30 6 13 10 15 51 15 244 0 167 -3 235 -12 244 -13 13 -31 16 -41 5z"/>
<path d="M1994 1865 c-11 -29 11 -36 102 -33 81 3 89 5 89 23 0 18 -8 20 -93
23 -77 2 -93 0 -98 -13z"/>
<path d="M4334 1866 c-11 -29 7 -36 97 -36 88 0 90 1 87 23 -3 21 -8 22 -91
25 -70 2 -88 0 -93 -12z"/>
<path d="M1361 1851 c-7 -12 -11 -98 -11 -220 0 -245 -4 -237 114 -227 87 7
119 24 98 49 -9 11 -29 13 -82 9 l-70 -5 2 179 3 179 65 5 c57 4 65 8 65 25 0
18 -8 20 -87 23 -78 2 -88 1 -97 -17z"/>
<path d="M3097 1857 c-11 -29 10 -36 113 -39 l105 -3 0 -65 0 -65 -95 -5 c-52
-3 -101 -9 -107 -13 -9 -6 -13 -43 -13 -127 0 -156 0 -156 162 -140 151 14
182 22 186 44 6 31 -12 39 -65 28 -26 -6 -87 -14 -135 -18 l-88 -7 0 87 0 86
90 0 c121 0 130 8 130 126 0 127 4 124 -149 124 -99 0 -130 -3 -134 -13z"/>
<path d="M3737 1856 c-10 -26 17 -36 98 -36 81 0 108 10 98 36 -7 20 -189 20
-196 0z"/>
<path d="M1914 1775 c-12 -31 7 -35 170 -35 131 0 166 3 176 15 25 30 0 35
-171 35 -139 0 -171 -3 -175 -15z"/>
<path d="M3668 1778 c-13 -35 1 -38 172 -38 126 0 169 3 173 13 12 34 -3 37
-173 37 -125 0 -169 -3 -172 -12z"/>
<path d="M4262 1768 c3 -23 4 -23 173 -23 163 0 170 1 170 20 0 19 -8 20 -173
23 l-173 2 3 -22z"/>
<path d="M2033 1720 c-81 -17 -119 -62 -94 -116 16 -36 69 -54 153 -54 116 0
180 49 150 114 -21 47 -120 73 -209 56z m138 -60 c49 -27 4 -60 -81 -60 -86 0
-134 37 -77 60 31 12 134 12 158 0z"/>
<path d="M4365 1719 c-56 -14 -85 -44 -85 -90 0 -29 7 -43 30 -62 16 -14 43
-28 60 -32 27 -6 30 -10 30 -46 l0 -39 -74 0 c-75 0 -94 -10 -76 -40 6 -10 39
-12 157 -7 171 7 208 15 208 43 0 17 -6 19 -77 15 l-78 -3 0 35 c0 32 3 35 36
42 52 9 84 45 84 93 0 39 -13 58 -56 80 -31 16 -114 22 -159 11z m147 -69 c9
-12 15 -27 12 -35 -14 -34 -133 -45 -169 -15 -18 15 -19 44 -2 58 35 28 133
23 159 -8z"/>
<path d="M3734 1701 c-28 -13 -43 -27 -48 -44 -16 -66 47 -107 162 -107 80 0
132 22 146 63 13 35 -16 77 -65 94 -52 18 -148 15 -195 -6z m187 -51 c24 -20
24 -20 5 -35 -13 -10 -42 -15 -84 -15 -68 0 -102 12 -102 36 0 21 36 33 101
33 43 1 63 -4 80 -19z"/>
<path d="M2637 1560 c-26 -4 -62 -17 -80 -27 -27 -16 -32 -25 -32 -57 0 -30 6
-43 25 -57 75 -56 332 -48 396 12 46 43 25 98 -47 120 -48 14 -205 20 -262 9z
m236 -61 c20 -5 37 -16 37 -23 0 -23 -58 -36 -165 -36 -106 0 -165 13 -165 35
0 7 12 18 28 23 36 14 217 15 265 1z"/>
<path d="M1937 1524 c-13 -13 -8 -121 7 -133 9 -8 77 -11 222 -9 201 3 209 4
209 23 0 19 -8 20 -190 25 l-190 5 -5 45 c-4 36 -9 46 -25 48 -12 2 -24 0 -28
-4z"/>
<path d="M3674 1506 c-12 -32 7 -36 192 -36 l184 0 0 -34 c0 -37 21 -62 45
-52 13 4 15 19 13 68 l-3 63 -213 3 c-180 2 -213 0 -218 -12z"/>
<path d="M2604 1245 c-10 -15 -26 -25 -40 -25 -17 0 -24 -6 -24 -20 0 -16 7
-20 30 -20 l29 0 3 -112 c3 -109 4 -113 26 -116 l22 -3 0 154 c0 128 -3 156
-15 161 -9 3 -21 -4 -31 -19z"/>
<path d="M2820 1241 c-25 -25 -30 -37 -30 -79 0 -35 6 -57 20 -75 24 -30 78
-44 109 -28 18 10 21 9 21 -9 0 -22 -41 -70 -60 -70 -6 0 -22 12 -35 26 -27
29 -55 27 -55 -5 0 -26 46 -61 81 -61 47 0 78 21 100 67 17 36 20 58 18 123
-5 103 -25 134 -93 138 -40 3 -50 -1 -76 -27z m102 -28 c21 -19 25 -82 6 -101
-7 -7 -24 -12 -38 -12 -35 0 -50 17 -50 59 0 60 44 89 82 54z"/>
<path d="M3172 1241 c-43 -47 -125 -189 -118 -206 4 -11 21 -15 65 -15 l60 0
3 -32 c2 -25 8 -34 26 -36 19 -3 22 1 22 32 0 28 4 35 23 38 12 2 22 10 22 18
0 8 -10 16 -22 18 -22 3 -23 7 -23 102 0 114 -13 131 -58 81z m8 -126 l0 -55
-35 0 c-19 0 -35 2 -35 5 0 6 64 105 68 105 1 0 2 -25 2 -55z"/>
<path d="M3392 1254 c-39 -27 -55 -73 -56 -154 -1 -124 31 -168 116 -157 49 7
74 31 84 83 17 94 -61 164 -138 123 -18 -10 -19 -8 -13 13 4 12 17 34 30 47
26 27 60 22 70 -10 9 -29 39 -20 43 13 6 50 -84 79 -136 42z m92 -175 c19 -54
-15 -105 -62 -93 -39 11 -53 93 -18 117 6 4 24 6 41 5 22 -2 32 -10 39 -29z"/>
<path d="M897 1096 c-103 -37 -103 -106 0 -106 51 0 117 38 121 70 7 46 -46
62 -121 36z"/>
<path d="M5080 893 c0 -4 15 -20 34 -35 25 -20 36 -24 45 -15 19 19 12 36 -16
43 -16 3 -36 8 -45 11 -10 2 -18 1 -18 -4z"/>
<path d="M4707 753 c-15 -4 -17 -11 -12 -31 9 -38 19 -45 55 -37 28 6 31 10
28 38 -2 26 -8 32 -28 34 -14 0 -33 -1 -43 -4z"/>
<path d="M3408 609 c-39 -22 -47 -137 -13 -182 18 -25 56 -18 72 13 15 30 17
99 3 134 -12 31 -40 47 -62 35z"/>
<path d="M2873 3739 c-54 -20 -26 -99 31 -85 26 6 44 44 31 65 -11 20 -40 29
-62 20z"/>
<path d="M2613 2848 c-19 -25 -21 -46 -7 -67 27 -38 94 -18 94 28 0 39 -65 67
-87 39z"/>
</g>
</svg>
