<?xml version="1.0" encoding="UTF-8"?>
<svg xmlns="http://www.w3.org/2000/svg" viewBox="0 0 100 100" role="img" aria-label="Private Hosting">
  <rect x="4" y="4" width="92" height="92" rx="20" fill="#353360"/>
  <rect x="10" y="10" width="80" height="80" rx="16" fill="none" stroke="#fff" stroke-opacity="0.9" stroke-width="2"/>

  <rect x="23" y="16" width="54" height="7" rx="3.5" fill="#fff"/>
  <circle cx="28" cy="19.5" r="1.3" fill="#353360"/>
  <circle cx="33" cy="19.5" r="1.3" fill="#353360"/>
  <circle cx="38" cy="19.5" r="1.3" fill="#353360"/>

  <path d="M35 41v-4c0-8.3 6.7-15 15-15s15 6.7 15 15v4" fill="none" stroke="#fff" stroke-width="5.2" stroke-linecap="round"/>
  <rect x="24" y="40" width="52" height="42" rx="8" fill="#fff"/>

  <g fill="#353360">
    <rect x="31" y="48" width="38" height="3.2" rx="1.6"/>
    <rect x="31" y="56" width="38" height="3.2" rx="1.6"/>
    <rect x="31" y="64" width="38" height="3.2" rx="1.6"/>
    <circle cx="34" cy="49.6" r="1.2"/>
    <circle cx="34" cy="57.6" r="1.2"/>
    <circle cx="34" cy="65.6" r="1.2"/>
  </g>

  <circle cx="50" cy="73" r="5.2" fill="#353360"/>
  <rect x="48.2" y="72.8" width="3.6" height="8.8" rx="1.8" fill="#353360"/>
</svg>
